# xmcd
#
# Track frame offsets:
#	150
#	13346
#	28955
#	45383
#	59873
#	79645
#	93658
#	110515
#	124570
#	137698
#	150935
#	167961
#	182867
#	198279
#	210641
#
# Disc length: 3005 seconds
#
# Revision: 1
# Processed by: cddbd v1.5.2PL0 Copyright (c) Steve Scherf et al.
# Submitted via: audiograbber 1.83.01
#
DISCID=d00bbb0f
DTITLE=Donnez - Acapulco
DYEAR=2012
DGENRE=Dansband
TTITLE0=Acapulco
TTITLE1=Åhus Strand
TTITLE2=Tänker Du På Mig I Ensamhet
TTITLE3=Hej Hej Hej
TTITLE4=En Clown I Mina Kläder
TTITLE5=Indiana
TTITLE6=Det Går Över
TTITLE7=Ge Mig Ett Ärligt Svar
TTITLE8=Det Är Kärleken Som Knackar På
TTITLE9=En Gång Till
TTITLE10=Koppla Av (I Can Help)
TTITLE11=Ingen Rök Utan Eld
TTITLE12=En Vilsen Själ
TTITLE13=Vad Ska Du Göra Sen
TTITLE14=Ge Mig Sommaren Tillbaka
EXTD=
EXTT0=
EXTT1=
EXTT2=
EXTT3=
EXTT4=
EXTT5=
EXTT6=
EXTT7=
EXTT8=
EXTT9=
EXTT10=
EXTT11=
EXTT12=
EXTT13=
EXTT14=
PLAYORDER=
